<mxfile host="app.diagrams.net" agent="Mozilla/5.0 (Windows NT 10.0; Win64; x64) AppleWebKit/537.36 (KHTML, like Gecko) Chrome/138.0.0.0 Safari/537.36" version="27.2.0">
  <diagram name="第 1 页" id="RTbQ_BdXUFmhGLBDefwj">
    <mxGraphModel dx="2066" dy="1111" grid="1" gridSize="10" guides="1" tooltips="1" connect="1" arrows="1" fold="1" page="1" pageScale="1" pageWidth="3300" pageHeight="4681" math="0" shadow="0">
      <root>
        <mxCell id="0" />
        <mxCell id="1" parent="0" />
        <mxCell id="yiai--Map1sYBRJFOp_M-1" value="&lt;font style=&quot;font-size: 16px;&quot;&gt;大屏前端&lt;/font&gt;" style="rounded=0;whiteSpace=wrap;html=1;" parent="1" vertex="1">
          <mxGeometry x="990" y="240" width="530" height="90" as="geometry" />
        </mxCell>
        <mxCell id="yiai--Map1sYBRJFOp_M-17" style="edgeStyle=orthogonalEdgeStyle;rounded=0;orthogonalLoop=1;jettySize=auto;html=1;entryX=0.25;entryY=0;entryDx=0;entryDy=0;" parent="1" source="yiai--Map1sYBRJFOp_M-2" target="yiai--Map1sYBRJFOp_M-16" edge="1">
          <mxGeometry relative="1" as="geometry" />
        </mxCell>
        <mxCell id="yiai--Map1sYBRJFOp_M-2" value="&lt;font style=&quot;font-size: 16px;&quot;&gt;业务服务中心&lt;/font&gt;" style="rounded=1;whiteSpace=wrap;html=1;" parent="1" vertex="1">
          <mxGeometry x="100" y="410" width="630" height="160" as="geometry" />
        </mxCell>
        <mxCell id="yiai--Map1sYBRJFOp_M-3" value="用户1" style="ellipse;whiteSpace=wrap;html=1;aspect=fixed;" parent="1" vertex="1">
          <mxGeometry x="180" y="180" width="80" height="80" as="geometry" />
        </mxCell>
        <mxCell id="yiai--Map1sYBRJFOp_M-4" value="用户2" style="ellipse;whiteSpace=wrap;html=1;aspect=fixed;" parent="1" vertex="1">
          <mxGeometry x="310" y="180" width="80" height="80" as="geometry" />
        </mxCell>
        <mxCell id="yiai--Map1sYBRJFOp_M-5" style="edgeStyle=orthogonalEdgeStyle;rounded=0;orthogonalLoop=1;jettySize=auto;html=1;entryX=0.189;entryY=-0.012;entryDx=0;entryDy=0;entryPerimeter=0;" parent="1" source="yiai--Map1sYBRJFOp_M-3" target="yiai--Map1sYBRJFOp_M-2" edge="1">
          <mxGeometry relative="1" as="geometry" />
        </mxCell>
        <mxCell id="yiai--Map1sYBRJFOp_M-6" style="edgeStyle=orthogonalEdgeStyle;rounded=0;orthogonalLoop=1;jettySize=auto;html=1;entryX=0.397;entryY=0;entryDx=0;entryDy=0;entryPerimeter=0;" parent="1" source="yiai--Map1sYBRJFOp_M-4" target="yiai--Map1sYBRJFOp_M-2" edge="1">
          <mxGeometry relative="1" as="geometry" />
        </mxCell>
        <mxCell id="yiai--Map1sYBRJFOp_M-11" value="&lt;h1&gt;&lt;br&gt;&lt;/h1&gt;" style="rounded=1;whiteSpace=wrap;html=1;align=right;" parent="1" vertex="1">
          <mxGeometry x="160" y="700" width="470" height="120" as="geometry" />
        </mxCell>
        <mxCell id="yiai--Map1sYBRJFOp_M-12" value="" style="strokeWidth=2;html=1;shape=mxgraph.flowchart.database;whiteSpace=wrap;" parent="1" vertex="1">
          <mxGeometry x="210" y="750" width="60" height="60" as="geometry" />
        </mxCell>
        <mxCell id="yiai--Map1sYBRJFOp_M-13" value="" style="strokeWidth=2;html=1;shape=mxgraph.flowchart.database;whiteSpace=wrap;" parent="1" vertex="1">
          <mxGeometry x="370" y="750" width="60" height="60" as="geometry" />
        </mxCell>
        <mxCell id="yiai--Map1sYBRJFOp_M-14" value="" style="strokeWidth=2;html=1;shape=mxgraph.flowchart.database;whiteSpace=wrap;" parent="1" vertex="1">
          <mxGeometry x="530" y="750" width="60" height="60" as="geometry" />
        </mxCell>
        <mxCell id="yiai--Map1sYBRJFOp_M-16" value="&lt;h1 style=&quot;margin-top: 0px;&quot;&gt;数据库&lt;/h1&gt;" style="text;html=1;whiteSpace=wrap;overflow=hidden;rounded=0;" parent="1" vertex="1">
          <mxGeometry x="370" y="700" width="180" height="120" as="geometry" />
        </mxCell>
        <mxCell id="yiai--Map1sYBRJFOp_M-19" value="&lt;font style=&quot;font-size: 16px;&quot;&gt;大屏后端&lt;/font&gt;" style="rounded=1;whiteSpace=wrap;html=1;" parent="1" vertex="1">
          <mxGeometry x="985" y="430" width="540" height="140" as="geometry" />
        </mxCell>
      </root>
    </mxGraphModel>
  </diagram>
</mxfile>
